<svg preserveAspectRatio="none" overflow="visible" style="display: block;" width="24" height="24" viewBox="0 0 24 24" fill="none" xmlns="http://www.w3.org/2000/svg">
<g id="search">
<path id="Union" fill-rule="evenodd" clip-rule="evenodd" d="M15.0004 16.5003C13.7468 17.442 12.1886 18 10.5 18C6.35786 18 3 14.6421 3 10.5C3 6.35786 6.35786 3 10.5 3C14.6421 3 18 6.35786 18 10.5C18 12.413 17.2838 14.1586 16.1049 15.4836L20.5607 19.9393L19.5 20.9999L15.0004 16.5003ZM16.5 10.5C16.5 13.8137 13.8137 16.5 10.5 16.5C7.18629 16.5 4.5 13.8137 4.5 10.5C4.5 7.18629 7.18629 4.5 10.5 4.5C13.8137 4.5 16.5 7.18629 16.5 10.5Z" fill="#959595"/>
</g>
</svg>
